<svg 
 xmlns="http://www.w3.org/2000/svg"
 xmlns:xlink="http://www.w3.org/1999/xlink"
 width="87px" height="28px">
<path fill-rule="evenodd"  fill="rgb(0, 212, 219)"
 d="M29.000,0.000 C26.595,6.492 22.1000,7.000 22.1000,7.000 C22.1000,7.000 22.928,5.549 24.902,2.845 C16.181,3.785 16.868,11.305 17.497,12.988 C17.497,12.988 11.122,24.152 -0.000,15.000 C-0.000,15.000 -0.385,24.120 7.000,25.000 C13.712,24.758 14.282,23.638 19.439,14.976 C19.439,14.976 21.939,15.299 23.1000,15.000 C27.802,14.449 29.1000,9.000 29.1000,9.000 C29.1000,9.000 29.840,3.447 29.000,0.000 Z"/>
<path fill-rule="evenodd"  fill="rgb(255, 255, 255)"
 d="M83.588,13.611 L80.320,6.724 L77.295,6.724 L72.973,13.503 L70.380,13.071 L75.377,5.292 C75.593,4.933 75.823,4.676 76.066,4.523 C76.309,4.370 76.592,4.293 76.917,4.293 L80.671,4.293 C80.977,4.293 81.269,4.374 81.548,4.536 C81.827,4.698 82.048,4.941 82.210,5.265 L86.072,13.179 L83.588,13.611 ZM69.354,8.939 L72.109,8.939 C71.371,10.199 70.407,11.685 69.219,13.395 C68.121,14.961 67.112,16.258 66.194,17.284 C66.824,17.194 67.518,17.068 68.274,16.906 C69.318,16.672 70.020,16.501 70.380,16.393 L70.083,18.932 L68.895,19.202 C68.013,19.418 66.887,19.634 65.519,19.850 C64.709,20.012 64.088,20.093 63.655,20.093 C63.061,20.093 62.656,19.859 62.440,19.391 C62.368,19.247 62.332,19.076 62.332,18.878 C62.332,18.518 62.467,18.175 62.737,17.851 C63.601,16.897 64.726,15.502 66.113,13.665 C65.573,13.737 65.168,13.782 64.898,13.800 C64.753,13.800 64.556,13.818 64.304,13.854 C63.979,13.890 63.736,13.908 63.574,13.908 C63.304,13.908 63.075,13.850 62.886,13.733 C62.697,13.616 62.557,13.458 62.467,13.260 C62.413,13.116 62.386,12.963 62.386,12.801 C62.386,12.441 62.521,12.090 62.791,11.747 C64.142,10.019 65.843,7.408 67.896,3.915 L70.732,3.915 C69.165,6.652 67.616,9.074 66.086,11.180 C66.680,11.144 67.329,11.063 68.031,10.937 C68.211,10.685 68.652,10.019 69.354,8.939 ZM70.272,23.496 C67.770,24.306 64.934,25.071 61.765,25.792 L62.062,23.199 C65.087,22.497 67.886,21.705 70.462,20.822 L70.272,23.496 ZM58.443,18.473 C58.317,19.607 58.209,20.480 58.119,21.092 L58.038,21.687 C57.822,23.163 57.660,24.198 57.551,24.793 C57.425,25.549 57.164,26.084 56.768,26.400 C56.372,26.714 55.778,26.872 54.986,26.872 C54.355,26.872 53.563,26.782 52.609,26.602 C52.231,26.548 51.556,26.404 50.583,26.170 L50.880,23.739 C52.105,24.046 53.230,24.262 54.256,24.387 C54.365,24.406 54.481,24.414 54.608,24.414 C54.751,24.414 54.851,24.374 54.905,24.293 C54.959,24.212 55.003,24.054 55.040,23.820 C55.346,21.966 55.616,19.904 55.850,17.635 L53.284,17.635 C52.456,19.868 51.402,21.759 50.124,23.307 C48.846,24.820 47.207,26.179 45.209,27.385 L42.805,26.143 C44.785,24.937 46.401,23.654 47.653,22.294 C48.904,20.935 49.899,19.382 50.637,17.635 L47.747,17.635 C45.785,21.165 42.859,23.973 38.970,26.062 L36.620,24.630 C38.349,23.803 39.919,22.803 41.333,21.633 C42.746,20.462 43.957,19.130 44.966,17.635 L42.022,17.635 C41.265,18.518 40.509,19.355 39.753,20.147 L36.701,20.147 C38.754,18.023 40.554,15.889 42.103,13.746 L40.050,13.746 L40.968,6.292 C41.058,5.572 41.261,5.054 41.576,4.739 C41.891,4.424 42.391,4.266 43.075,4.266 L55.850,4.266 C57.164,4.266 57.822,4.887 57.822,6.130 C57.822,6.346 57.812,6.517 57.795,6.643 L57.011,13.746 L45.074,13.746 C44.497,14.539 44.092,15.088 43.858,15.394 L56.201,15.394 C57.065,15.394 57.673,15.524 58.024,15.785 C58.375,16.046 58.551,16.519 58.551,17.203 C58.551,17.311 58.533,17.545 58.497,17.905 L58.443,18.473 ZM55.148,6.373 L43.561,6.373 L43.372,8.020 L54.986,8.020 L55.148,6.373 ZM54.608,11.639 L54.770,9.965 L43.156,9.965 L42.994,11.639 L54.608,11.639 ZM74.567,11.369 L82.291,11.369 L82.021,13.584 L74.297,13.584 L74.567,11.369 ZM74.972,18.446 L71.245,18.446 L71.542,16.150 L84.830,16.150 L84.533,18.446 L77.808,18.446 C76.529,20.552 75.296,22.416 74.108,24.036 C76.178,23.911 78.312,23.658 80.509,23.280 L79.293,19.985 L81.778,19.985 L84.425,26.845 L81.859,26.845 L81.373,25.549 C80.004,25.765 78.672,25.936 77.376,26.062 C76.079,26.188 74.476,26.323 72.568,26.467 C72.136,26.503 71.771,26.454 71.474,26.319 C71.177,26.183 70.975,25.990 70.867,25.738 C70.794,25.594 70.759,25.423 70.759,25.225 C70.759,24.793 70.948,24.325 71.326,23.820 C72.604,22.164 73.819,20.372 74.972,18.446 Z"/>
</svg>